<mxfile host="65bd71144e">
    <diagram id="bjyWaKEGDiXJ2DWr5zG6" name="Page-1">
        <mxGraphModel dx="493" dy="1396" grid="1" gridSize="8" guides="1" tooltips="1" connect="1" arrows="1" fold="1" page="1" pageScale="1" pageWidth="850" pageHeight="1100" math="0" shadow="0">
            <root>
                <mxCell id="0"/>
                <mxCell id="1" parent="0"/>
                <mxCell id="11" style="edgeStyle=none;html=1;fontSize=23;exitX=0.5;exitY=0;exitDx=0;exitDy=0;entryX=0.5;entryY=1;entryDx=0;entryDy=0;" parent="1" edge="1">
                    <mxGeometry relative="1" as="geometry">
                        <mxPoint x="341" y="522" as="sourcePoint"/>
                        <mxPoint x="341" y="360" as="targetPoint"/>
                    </mxGeometry>
                </mxCell>
                <mxCell id="12" value="Send" style="edgeLabel;html=1;align=center;verticalAlign=middle;resizable=0;points=[];fontSize=23;" parent="11" vertex="1" connectable="0">
                    <mxGeometry x="0.1323" y="-4" relative="1" as="geometry">
                        <mxPoint as="offset"/>
                    </mxGeometry>
                </mxCell>
                <mxCell id="16" style="edgeStyle=none;html=1;exitX=1.006;exitY=0.717;exitDx=0;exitDy=0;entryX=0;entryY=0.904;entryDx=0;entryDy=0;entryPerimeter=0;fontSize=16;exitPerimeter=0;" parent="1" edge="1">
                    <mxGeometry relative="1" as="geometry">
                        <mxPoint x="419.26" y="619.55" as="sourcePoint"/>
                        <mxPoint x="594" y="620.7840000000001" as="targetPoint"/>
                        <Array as="points"/>
                    </mxGeometry>
                </mxCell>
                <mxCell id="17" value="Send Lp token" style="edgeLabel;html=1;align=center;verticalAlign=middle;resizable=0;points=[];fontSize=16;" parent="16" vertex="1" connectable="0">
                    <mxGeometry x="-0.206" relative="1" as="geometry">
                        <mxPoint x="26" as="offset"/>
                    </mxGeometry>
                </mxCell>
                <mxCell id="2" value="" style="whiteSpace=wrap;html=1;" parent="1" vertex="1">
                    <mxGeometry x="208" y="522" width="210" height="150" as="geometry"/>
                </mxCell>
                <mxCell id="4" value="Pair" style="text;strokeColor=none;align=center;fillColor=none;html=1;verticalAlign=middle;whiteSpace=wrap;rounded=0;arcSize=22;strokeWidth=1;fontSize=23;" parent="1" vertex="1">
                    <mxGeometry x="273" y="572" width="80" height="40" as="geometry"/>
                </mxCell>
                <mxCell id="7" style="edgeStyle=none;html=1;exitX=0.5;exitY=1;exitDx=0;exitDy=0;entryX=0.5;entryY=0;entryDx=0;entryDy=0;fontSize=23;" parent="1" edge="1">
                    <mxGeometry relative="1" as="geometry">
                        <mxPoint x="286" y="360" as="sourcePoint"/>
                        <mxPoint x="286" y="522" as="targetPoint"/>
                        <Array as="points">
                            <mxPoint x="286" y="440"/>
                        </Array>
                    </mxGeometry>
                </mxCell>
                <mxCell id="9" value="Buy" style="edgeLabel;html=1;align=center;verticalAlign=middle;resizable=0;points=[];fontSize=23;" parent="7" vertex="1" connectable="0">
                    <mxGeometry x="0.256" y="-2" relative="1" as="geometry">
                        <mxPoint x="2" y="-22" as="offset"/>
                    </mxGeometry>
                </mxCell>
                <mxCell id="6" value="User" style="whiteSpace=wrap;html=1;strokeWidth=1;fontSize=23;" parent="1" vertex="1">
                    <mxGeometry x="256" y="304" width="114" height="56" as="geometry"/>
                </mxCell>
                <mxCell id="14" style="edgeStyle=none;html=1;exitX=0;exitY=0.25;exitDx=0;exitDy=0;fontSize=16;" parent="1" source="13" edge="1">
                    <mxGeometry relative="1" as="geometry">
                        <mxPoint x="418" y="568" as="targetPoint"/>
                    </mxGeometry>
                </mxCell>
                <mxCell id="15" value="Add Lp" style="edgeLabel;html=1;align=center;verticalAlign=middle;resizable=0;points=[];fontSize=16;" parent="14" vertex="1" connectable="0">
                    <mxGeometry x="-0.0904" y="2" relative="1" as="geometry">
                        <mxPoint as="offset"/>
                    </mxGeometry>
                </mxCell>
                <mxCell id="13" value="&lt;font style=&quot;font-size: 16px;&quot;&gt;Lp&lt;br&gt;Supplyer&lt;/font&gt;" style="whiteSpace=wrap;html=1;strokeWidth=1;fontSize=23;" parent="1" vertex="1">
                    <mxGeometry x="594" y="544" width="88" height="96" as="geometry"/>
                </mxCell>
                <mxCell id="18" value="1:1Buy和Sell不考虑恒定公式，先实现trade和Lp功能" style="text;html=1;align=center;verticalAlign=middle;resizable=0;points=[];autosize=1;strokeColor=none;fillColor=none;fontSize=26;" parent="1" vertex="1">
                    <mxGeometry x="64" y="152" width="624" height="48" as="geometry"/>
                </mxCell>
            </root>
        </mxGraphModel>
    </diagram>
</mxfile>